<svg xmlns="http://www.w3.org/2000/svg" viewBox="0, 0, 949.35, 592.45" font-family="SauceCodePro Nerd Font, Source Code Pro, Courier" font-size="14"><g fill="#D3D3D3"><rect x="0" y="0" width="949.35" height="592.45" fill="#000000"/><path d="M0,35.5146875 L142.8232421875,35.5146875 Z" stroke="#D3D3D3"/><text x="0" y="33.55" font-weight="bold">find-es-resources</text><text x="16.8" y="71.55">  Find resource files within JavaScript files                                   </text><text x="16.8" y="109.55" font-style="italic">find-es-resources --input path/to/file.js --output path/to/file.js</text><path d="M0,149.5146875 L58.8095703125,149.5146875 Z" stroke="#D3D3D3"/><text x="0" y="147.55" font-weight="bold">Options</text><text x="16.8" y="185.55" font-weight="bold">-o</text><text x="33.61" y="185.55">, </text><text x="50.41" y="185.55" font-weight="bold">--output</text><path d="M126.0205078125,187.5146875 L201.6328125,187.5146875 Z" stroke="#D3D3D3"/><text x="126.02" y="185.55">file path</text><text x="394.86" y="185.55">                       File to which to save the output. Required.                       </text><text x="16.8" y="204.55" font-weight="bold">-i</text><text x="33.61" y="204.55">, </text><text x="50.41" y="204.55" font-weight="bold">--input</text><path d="M117.619140625,206.5146875 L268.84375,206.5146875 Z" stroke="#D3D3D3"/><text x="117.62" y="204.55">path to input file</text><text x="394.86" y="204.55">               Input file. Will default to checking &#x60;exports.browser&#x60;.           </text><text x="16.8" y="223.55" font-weight="bold">--noGlobs</text><text x="394.86" y="223.55">                                    &#x60;input&#x60; files will be treated by default as globs. Set this to    </text><text x="394.86" y="242.55">                                               &#x60;true&#x60; to disable. Defaults to &#x60;false&#x60;.                           </text><text x="16.8" y="261.55" font-weight="bold">--singleFiles</text><text x="394.86" y="261.55">                                Set to &#x60;true&#x60; to avoid traversing import chain. Defaults to       </text><text x="394.86" y="280.55">                                               &#x60;false&#x60;.                                                          </text><text x="16.8" y="299.55" font-weight="bold">--cwd</text><path d="M67.2109375,301.5146875 L100.81640625,301.5146875 Z" stroke="#D3D3D3"/><text x="67.21" y="299.55">path</text><text x="394.86" y="299.55">                                   Current working directory; defaults to &#x60;process.cwd()&#x60;            </text><text x="16.8" y="318.55" font-weight="bold">--htmlInput</text><path d="M117.619140625,320.5146875 L310.8505859375,320.5146875 Z" stroke="#D3D3D3"/><text x="117.62" y="318.55">path to HTML input file</text><text x="394.86" y="318.55">          HTML input file. &#x60;link[href]&#x60;, &#x60;img[src]&#x60;, and &#x60;script[src]&#x60; will </text><text x="394.86" y="337.55">                                               be checked in addition to adding the HTML file itself.            </text><text x="16.8" y="356.55" font-weight="bold">--cssInput</text><path d="M109.2177734375,358.5146875 L294.0478515625,358.5146875 Z" stroke="#D3D3D3"/><text x="109.22" y="356.55">path to CSS input file</text><text x="394.86" y="356.55">            CSS input file. URL fields will be checked in addition to adding  </text><text x="394.86" y="375.55">                                               the CSS file itself.                                              </text><text x="16.8" y="394.55" font-weight="bold">--removeBasePath</text><path d="M159.6259765625,396.5146875 L193.2314453125,396.5146875 Z" stroke="#D3D3D3"/><text x="159.63" y="394.55">path</text><text x="394.86" y="394.55">                        Base path used to strip off a full file path.                     </text><text x="16.8" y="413.55" font-weight="bold">--addBasePath</text><path d="M134.421875,415.5146875 L168.02734375,415.5146875 Z" stroke="#D3D3D3"/><text x="134.42" y="413.55">path</text><text x="394.86" y="413.55">                           URL base path added on to path (after any &#x60;removeBasePath&#x60;).      </text><text x="16.8" y="432.55" font-weight="bold">--esFileTraverseOptions</text><path d="M218.435546875,434.5146875 L369.66015625,434.5146875 Z" stroke="#D3D3D3"/><text x="218.44" y="432.55">JSON object string</text><text x="394.86" y="432.55">   Options to pass to &#x60;es-file-traverse&#x60;. Note that &#x60;file&#x60; and       </text><text x="394.86" y="451.55">                                               &#x60;callback&#x60; on this object have no effect. Defaults to &#x60;{&#x22;node&#x22;:   </text><text x="394.86" y="470.55">                                               &#x22;true&#x22;}&#x60; and use of our main &#x60;file&#x60; and a special &#x60;callback&#x60;.     </text><text x="16.8" y="489.55" font-weight="bold">--queryModule</text><path d="M134.421875,491.5146875 L285.646484375,491.5146875 Z" stroke="#D3D3D3"/><text x="134.42" y="489.55">JSON object string</text><text x="394.86" y="489.55">             Note that any items discovered on the object returned by the      </text><text x="394.86" y="508.55">                                               requiring of the &#x60;queryModule&#x60; module will be merged onto the     </text><text x="394.86" y="527.55">                                               built-in queries of &#x60;find-es-resources&#x60;.                          </text><text x="16.8" y="546.55" font-weight="bold">-v</text><text x="33.61" y="546.55">, </text><text x="50.41" y="546.55" font-weight="bold">--version</text><text x="16.8" y="565.55" font-weight="bold">-h</text><text x="33.61" y="565.55">, </text><text x="50.41" y="565.55" font-weight="bold">--help</text></g></svg>